<svg id="Layer_1" data-name="Layer 1" xmlns="http://www.w3.org/2000/svg" viewBox="0 0 130 130"><defs><style>.cls-1{fill:#5d72a0;}</style></defs><path class="cls-1" d="M69.7,53.38a2.64,2.64,0,0,0,2.24,1.25h.16a4.08,4.08,0,0,0,2.65-1.22,4.23,4.23,0,0,1,2.68-1.24,3.86,3.86,0,0,1,1.53.34,24.6,24.6,0,0,1,2.23,1.18,8.6,8.6,0,0,0,4.22,1.58,5,5,0,0,0,1.77-.34,6.37,6.37,0,0,0,.9-.4c1.11-.59,1.77-3.16,1-6.43,0-.13,0-.24-.09-.37l0,0h0v0s0,0,0,0h-.07l-.07,0-.22.07L88.4,48h0l-.21.07-.12,0H88a13,13,0,0,1-2.87.67,10.65,10.65,0,0,1-3.38-.08,16.16,16.16,0,0,1-1.67-.39l-1.57-.51a2.16,2.16,0,0,0-1.46,0,2.43,2.43,0,0,0-1.07,1l-.21.31c-.23.36-.45.74-.71,1.09a4.79,4.79,0,0,1-.59.69,3.8,3.8,0,0,1-.33.28,2.41,2.41,0,0,1-.39.26,2.24,2.24,0,0,1-1.85.31,3.64,3.64,0,0,1-1.49-1C69.62,49.87,69,49,68,48.65a5.87,5.87,0,0,0-3.09-.3,21.6,21.6,0,0,0-3.17.86,11.93,11.93,0,0,1-1.69.42,7.26,7.26,0,0,1-1.75-.11c-.93-.17-1.81-.45-2.67-.69l-.59-.15-.77-.15c-.25,0-.55,0-.82,0a2.52,2.52,0,0,0-.39,0l-.39,0a2.63,2.63,0,0,0-.77.19,20.12,20.12,0,0,0-3,1.41l-.77.36-.83.28a4.9,4.9,0,0,1-.82.15,3.63,3.63,0,0,1-.87,0A8.06,8.06,0,0,1,44,50.76l-.8-.31a8,8,0,0,1-.73-.45,4,4,0,0,1-1.38-2.13c-.78,2.37-.54,4.47.72,6a9,9,0,0,0,1.1,1.17,3.39,3.39,0,0,0,2.23,1.1c1.16,0,2.2-1,3.31-2,1.28-1.2,2.6-2.45,4.38-2.57h.35c2.51,0,3,1.94,3.43,3.5s.66,2.19,1.59,2.19c1.24,0,2.26-1.18,3.33-2.44,1.25-1.45,2.65-3.09,4.74-3.09A3.83,3.83,0,0,1,69.7,53.38Z"/><path class="cls-1" d="M42.54,49.85a4.82,4.82,0,0,0,3.11.78,3.55,3.55,0,0,0,.8-.06,5,5,0,0,0,.81-.18c.24-.1.49-.17.74-.28l.74-.36a18.89,18.89,0,0,1,3-1.53A3.44,3.44,0,0,1,52.6,48l.44-.07a3.37,3.37,0,0,1,.44,0,6,6,0,0,1,.84,0l.88.13c.65.16,1.28.34,1.89.5a10.8,10.8,0,0,0,1.34.31A6.4,6.4,0,0,0,60,49a9.37,9.37,0,0,0,1.55-.41c.65-.21,1.32-.43,2-.61,0,0,0,0,0,0a8.73,8.73,0,0,1,1.25-.29,6.16,6.16,0,0,1,3.47.33l0,0h0a4.78,4.78,0,0,1,.74.39,3.62,3.62,0,0,1,.68.58c.41.41.76.86,1.13,1.24a2.87,2.87,0,0,0,1.18.89,1.6,1.6,0,0,0,1.34-.23A5.33,5.33,0,0,0,75.14,49l.33-.5a3,3,0,0,1,1.38-1.2,2.73,2.73,0,0,1,1.81.08l1.59.57c.52.13,1,.31,1.58.4a11.51,11.51,0,0,0,3.26.2,14.59,14.59,0,0,0,3.26-.64v0l.12,0,.23-.07.08,0,.06,0h0l.05,0c-1.51-5.44-6.49-11.08-16.13-13.12a6.52,6.52,0,0,1-12.95-.37C51,35.72,44.15,41.13,41.61,46.49a11.48,11.48,0,0,0-.53,1.3A3.88,3.88,0,0,0,42.54,49.85Z"/><path class="cls-1" d="M40.91,47.09a3.56,3.56,0,0,0,.14.78l0-.08A4.2,4.2,0,0,1,40.91,47.09Z"/><path class="cls-1" d="M89.37,47.48l-.44.22v0C89.08,47.66,89.23,47.56,89.37,47.48Z"/><path class="cls-1" d="M105.33,85.31c1.3-4.08,1.88-6.12,2.9-10.21-2.81.74-5.59,1.38-8.35,2A40,40,0,0,0,69.64,17.66,22.53,22.53,0,0,0,65,12.24a.72.72,0,0,0-.94,1.1,22.72,22.72,0,0,1,3.81,4.15c-.94-.07-1.88-.11-2.83-.11A40.1,40.1,0,0,0,25,57.43a39.68,39.68,0,0,0,5.17,19.64c-2.77-.59-5.54-1.23-8.35-2,1,4.09,1.6,6.13,2.89,10.21-3.2,3-4.86,4.52-8.31,7.4,33.23,8.86,64.07,8.86,97.3,0C110.2,89.83,108.53,88.35,105.33,85.31ZM27.61,57.43A37.43,37.43,0,0,1,65,20a37.83,37.83,0,0,1,4.41.27,11.83,11.83,0,0,1,.83,2.79A34.71,34.71,0,0,0,37.42,78.51l-3.74-.69A37.19,37.19,0,0,1,27.61,57.43Zm10.21,37C35.06,94,34.48,93.21,34.71,92c.08-.39.31-1.19,1.14-4.15,1-3.66,1.1-4,1.16-4.35.13-.67.15-.8.45-.76,1.28.16,2.18.26,2.85.37,3.34.56,4.53,1.76,4.28,3.58-.13,1-2.15,2.34-2.15,2.34s1.63,1.56,1.47,2.76C43.65,93.69,42.14,95.18,37.82,94.45Zm17,1.43c0,.3-.18.37-.5.35l-.91-.07c-2-.14-2.15-1.1-2.21-2.64-1.22-.11-1.83-.16-3-.29-.32.85-.49,1.27-.82,2.12a.38.38,0,0,1-.43.21l-.94-.11c-.76-.09-1.64-.49-1.55-1.25.19-1.42,4.19-8.35,5-9.46.21-.28.28-.27.68-.23l1.56.14c1.1.1,1.33,1,1.5,1.91C54.37,93.55,54.81,95.35,54.78,95.88Zm-7.6-22.27c-.1-.51-.21-1-.32-1.49-.4-1.94-.83-3.92-1.28-6,0-.25-.11-.5-.16-.75s-.15-.66-.22-1c-.21-1-.43-2.05-.67-3.14-.09-.45-.2-.89-.29-1.36-.06-.29-.12-.58-.19-.87v0c.38-.36.58-.54,1-.92l1.55,1.43c.57,3,1.06,5.6,1.51,8,.85,4.49,1.57,8.38,2.38,12.74l-1.91-.18,0-.14h0v0C48.05,77.71,47.62,75.67,47.18,73.61Zm5.66,6.83c-.13-.8-.25-1.59-.37-2.36-.1-.59-.18-1.18-.28-1.76-.23-1.46-.46-2.91-.69-4.39-.08-.53-.16-1.06-.25-1.6s-.16-1.07-.25-1.63-.15-.91-.21-1.38c-.15-.89-.28-1.8-.44-2.74-.23-1.44-.46-3-.72-4.6l1-1,1.48,1.36c.45,3.41.84,6.35,1.2,9.09.51,3.89,1,7.36,1.46,11.16Zm3-13.39c-.13-1.3-.26-2.68-.41-4.11-.07-.73-.14-1.47-.22-2.25l1.13-1.06c.58.51.86.77,1.42,1.28.27,3.6.49,6.68.7,9.54.27,3.59.51,6.85.77,10.37-.67,0-1.35-.07-2-.1l-.12-1.12c-.2-2.08-.4-4.07-.61-6.12-.05-.59-.11-1.18-.17-1.77,0-.13,0-.26,0-.39,0-.41-.09-.82-.12-1.25s-.08-.73-.12-1.11C56,68.33,55.94,67.71,55.88,67.05Zm7.75,29.68c-1.76,0-2.51-2.14-3.34-5l-.67.38c-.19,1.64-.29,2.46-.48,4.11,0,.17-.08.23-.29.22l-1,0c-1.34,0-1.82-.58-1.77-1.51,0-.59.32-2.54.6-4.57.55-4,.59-4.47.63-5,0-.17.1-.23.28-.22l.91,0c1.4.06,1.65.6,1.62,1.58,0,.49-.27,3-.27,3s1.89-2.11,3.4-4c.15-.19.51-.61.82-.6.58,0,1.63,1.34,1.63,1.93s-3.29,2.8-3.43,3.47,3.45,4.94,3.45,5.05C65.74,95.88,64.75,96.74,63.63,96.73ZM60.9,61.08c.47-.45.71-.68,1.2-1.13l1.35,1.2c.06,3.69.11,6.82.15,9.73.06,3.47.11,6.63.16,10l-2,0,0-.66c-.13-3.18-.26-6.19-.41-9.47,0-1.45-.11-3-.18-4.55,0-.59,0-1.2-.08-1.82C61,63.33,61,62.23,60.9,61.08Zm1.32-5.65c-1.17,1.36-2.37,2.77-4.06,2.77S56,56.66,55.63,55.3c-.48-1.83-.9-2.91-2.77-2.78-1.44.1-2.63,1.22-3.79,2.31s-2.44,2.29-4,2.29a4.28,4.28,0,0,1-2.82-1.28,7.41,7.41,0,0,0-.76,1.41,4.28,4.28,0,0,0-.23.72v0c.06.23.13.45.18.68a5,5,0,0,0-.46-.42c.09.38.2.75.29,1.13h0c.35,1.43.69,2.79,1,4.1.18.69.34,1.38.5,2,.23.94.45,1.85.66,2.74C44.33,71.78,45.11,75,46,78.53c.09.41.19.84.29,1.25-2.28-.27-4.56-.58-6.86-1A33.38,33.38,0,0,1,65,24a32.92,32.92,0,0,1,5.38.44,9.49,9.49,0,0,1-.6,3.65,8.64,8.64,0,0,1-.38.88l-.47-.27-.39-.19-.06,0a3.9,3.9,0,0,0-.48-.17h0a4.6,4.6,0,0,0-.5-.13,3.7,3.7,0,0,0-.48-.07h-.14a4.07,4.07,0,0,0-.5,0,5.17,5.17,0,0,0-.57,0,5.52,5.52,0,0,0-3,1.28,3.71,3.71,0,0,0-.29.27,1.89,1.89,0,0,1-.2.2l0,0c-.1.12-.21.24-.31.37s-.19.26-.28.41a1,1,0,0,0-.14.24,1.32,1.32,0,0,0-.12.2s0,0,0,0h0a1.89,1.89,0,0,0-.09.21s0,0,0,0l0,0-.05.11,0,.08A2.06,2.06,0,0,0,61,32s0,0,0,.05v0a4,4,0,0,0-.12.44c0,.17-.06.36-.08.54a1.91,1.91,0,0,0,0,.48.28.28,0,0,0,0,.09c0,.14,0,.27,0,.41v0a.09.09,0,0,0,0,0,.93.93,0,0,0,0,.24,3.07,3.07,0,0,0,0,.34.83.83,0,0,0,0,.15A149848826726,149848826726,0,0,0,61,35v0a.57.57,0,0,0,0,.14,0,0,0,0,0,0,0h0s0,0,0,0h0a1.33,1.33,0,0,0,.12.37.14.14,0,0,0,0,.06,3,3,0,0,0,.19.45,2.25,2.25,0,0,0,.16.31l0,0,0,0s0,.09.07.13v0l0,0h0a2.22,2.22,0,0,0,.19.27l0,0a1,1,0,0,0,.15.2.34.34,0,0,0,.06.06,1.74,1.74,0,0,0,.28.32.6.6,0,0,0,.08.08,3.49,3.49,0,0,0,.35.32,0,0,0,0,0,0,0l.29.22h0l.18.14.2.11a1.57,1.57,0,0,0,.31.18l.26.12.2.09a5.5,5.5,0,0,0,2.08.4,5.44,5.44,0,0,0,.57,0l.44-.06.17,0h0A2.48,2.48,0,0,0,68,39l.11,0a1.55,1.55,0,0,0,.36-.13l.19-.08.22-.1a3.47,3.47,0,0,0,.37-.21l0,0,0,0a1.21,1.21,0,0,0,.29-.19,2.17,2.17,0,0,0,.3-.23,3.59,3.59,0,0,0,.36-.32.17.17,0,0,0,.06-.06,3.11,3.11,0,0,0,.33-.38,2.17,2.17,0,0,0,.24-.29l.19-.29,0,0,.18-.31.15-.32a2.18,2.18,0,0,0,.09-.23s0,0,0,0a1.14,1.14,0,0,0,.09-.26v0a2.13,2.13,0,0,0,.08-.27l0-.1a1,1,0,0,1,0-.15c0-.16.06-.31.08-.47s0-.12,0-.18,0-.2,0-.31a2.09,2.09,0,0,0,0-.25,1.77,1.77,0,0,0,0-.23.22.22,0,0,0,0-.08,2.19,2.19,0,0,0,0-.36,2.08,2.08,0,0,0-.06-.36,2,2,0,0,0,0-.26v0l0-.16s0,0,0,0,0-.17-.08-.25-.08-.23-.13-.35a3.17,3.17,0,0,0-.19-.42,4.23,4.23,0,0,0-.23-.41l-.2-.31,0-.05,0-.05c-.09-.12-.17-.22-.27-.33A7.45,7.45,0,0,0,71,29a10.86,10.86,0,0,0,.84-4.31,33.37,33.37,0,0,1,18.81,54.1c-2.28.37-4.56.68-6.84,1,1.16-4.82,2.17-9,3.35-13.93.51-2.11,1.07-4.36,1.69-6.84v0c.06-.24.13-.49.19-.74l-.37.31-.1.08c.1-.33.19-.66.27-1v0a3,3,0,0,0-.18-.47,7,7,0,0,0-.8-1.43,6.25,6.25,0,0,1-2.41.51,6.45,6.45,0,0,1-2.48-.54,18.73,18.73,0,0,1-2.22-1.16,21.73,21.73,0,0,0-2.14-1.13c-1.37-.6-2.23,0-3.22.77a5,5,0,0,1-3.46,1.43A3.57,3.57,0,0,1,69,54a2.92,2.92,0,0,0-2.72-1.31C64.59,52.68,63.38,54.08,62.22,55.43ZM66,30a.62.62,0,1,1-.62-.62A.62.62,0,0,1,66,30Zm17.4,41c-.12.6-.25,1.19-.37,1.78-.18.8-.34,1.59-.51,2.38-.34,1.62-.69,3.25-1.05,5l-1.92.18c.09-.51.19-1,.28-1.49L80,77.62c.22-1.2.44-2.37.66-3.54.11-.59.21-1.18.33-1.77.06-.3.1-.59.16-.88.12-.6.23-1.2.34-1.81s.25-1.33.38-2c.47-2.47,1-5.13,1.54-8.14l1.46-1.41L86,59c-.16.77-.33,1.51-.48,2.24-.32,1.45-.61,2.82-.89,4.13-.07.31-.13.61-.19.9l-.18.82a1.91,1.91,0,0,0,0,.21c-.14.64-.26,1.26-.4,1.87S83.52,70.34,83.39,70.94ZM66.25,80.32c0-.4,0-.79,0-1.19v0c0-.37,0-.76,0-1.14s0-1,0-1.45l0-1.55c0-.56,0-1.11,0-1.67,0-.39,0-.76,0-1.15v0c0-.4,0-.81,0-1.22,0-2.18.06-4.49.11-7.07,0-.42,0-.86,0-1.3s0-.9,0-1.36c.5-.48.75-.72,1.28-1.2.51.45.77.69,1.28,1.13-.16,3.66-.28,6.78-.4,9.68-.15,3.5-.29,6.68-.43,10.12-.68,0-1.36,0-2,0C66.24,80.71,66.25,80.52,66.25,80.32Zm8.07,14.92c0,.64-.22,1.09-1.28,1.14-1.64.08-2.46.11-4.09.15-1.32,0-1.86-.46-1.87-1.32,0-1.29.59-8.66.57-9.75,0-.17.08-.24.26-.24,2.33,0,3.49-.09,5.82-.22.13,0,.27,0,.28.2,0,.38,0,.57,0,1,0,.64-.21,1.08-1.21,1.13s-1.39.07-2.32.1c0,.91,0,1.36-.09,2.26,1,0,1.45,0,2.42-.1a.24.24,0,0,1,.28.21c0,.37,0,.56,0,.94,0,.64-.22,1.08-1.26,1.13l-1.5.06c0,1-.06,1.43-.11,2.38,1.54-.05,2.31-.08,3.86-.17a.25.25,0,0,1,.29.21C74.33,94.67,74.33,94.86,74.32,95.24Zm-.5-25.14c-.37,3.68-.7,7-1.07,10.62-.67,0-1.34.08-2,.1l.06-.79c0-.41.07-.8.09-1.2s.08-1,.11-1.56.11-1.31.16-2c0-.4.06-.79.08-1.19q.13-1.77.27-3.63c.22-2.87.44-6,.71-9.56l1.33-1.28,1.21,1.06C74.4,64.24,74.1,67.28,73.82,70.1Zm2.82-.63c0-.16,0-.34.07-.52s.05-.34.07-.52c0-.35.09-.7.13-1.06l.15-1.08c.11-.85.23-1.72.35-2.63.09-.71.19-1.43.29-2.17,0-.38.09-.76.14-1.14L79.24,59c.45.4.69.59,1.14,1-.52,3.28-1,6.14-1.39,8.8-.63,4.07-1.2,7.68-1.82,11.66l-2,.15C75.68,76.81,76.13,73.34,76.64,69.47Zm6.49,26.25c-1.49.17-2.46-3.24-3.13-3.68a3,3,0,0,0-1,0c-.34.31,0,3.52,0,3.71s0,.25-.27.27l-.88.07c-1.33.11-1.88-.36-1.94-1.28,0-.53,0-2.56,0-4.61s0-3.44,0-4.21c0-1,0-1.12.24-1.13,1.38-.11,2.87-.4,3.78-.5,2.83-.28,4.12,1,4.39,3.09a3.69,3.69,0,0,1-1.78,3.94c.67.7,1,1,1.68,1.73s1,1,1,1.17A2.3,2.3,0,0,1,83.13,95.72Zm9-1.67c0,.17,0,.25-.24.28l-1,.16c-1.41.23-1.91-.2-2.06-1.23a8,8,0,0,0-.23-2.75,15.53,15.53,0,0,0-1.24-1.71,38.49,38.49,0,0,1-2.79-4.53c0-.2.3-.37,1.06-.48,1.82-.25,2.24.45,2.68,1.34.87,1.73,1.92,3.7,1.92,3.7.23,0,.95-3.12,1.31-5.47.07-.42.17-.52.46-.57s2.28-.39,2.46.55-2.39,6-2.71,7.24A20.69,20.69,0,0,0,92.13,94.05Zm.44-15.54A34.69,34.69,0,0,0,71.71,23.36,13.38,13.38,0,0,0,71,20.53,37.36,37.36,0,0,1,96.32,77.82C95.06,78.06,93.82,78.29,92.57,78.51Z"/><path class="cls-1" d="M79.84,86.76a3.48,3.48,0,0,0-1,.17,7.74,7.74,0,0,0,.08,3,2.66,2.66,0,0,0,1,0,1.63,1.63,0,0,0,1.5-2C81.4,87.1,80.94,86.65,79.84,86.76Z"/><path class="cls-1" d="M40.51,85.35a2.9,2.9,0,0,0-.88-.07,5.45,5.45,0,0,0-.49,2.14c0,.11.64.23.94.28,1.33.22,1.68-.41,1.76-.91C41.94,86.14,41.62,85.53,40.51,85.35Z"/><path class="cls-1" d="M49,91l2,.19c-.14-1.71-.2-2.56-.33-4.26C50,88.55,49.66,89.36,49,91Z"/><path class="cls-1" d="M39.63,89.73a8.86,8.86,0,0,0-1.05-.08L38,92.19a4.08,4.08,0,0,0,1.09.36c1.45.24,1.83-.58,1.92-1.18C41.09,90.58,40.77,89.92,39.63,89.73Z"/><path class="cls-1" d="M53.18,105a1.7,1.7,0,0,1-1.92,1.83c-.38,0-.44-.06-.44-.28,0-.44,0-1.49-1-1.49a1.23,1.23,0,0,0-1.31,1.12c0,1.74,4.45,1.15,4.45,4.75,0,1.89-1.21,3.36-3.69,3.36-2.12,0-3.73-1.07-3.73-1.76,0-1.4.14-2,.56-2,.59,0,1.26,1.25,2.76,1.25.6,0,1.2-.21,1.2-.82,0-1.61-4.14-.84-4.14-4.56,0-2.76,2.28-3.78,4.33-3.78S53.18,103.56,53.18,105Z"/><path class="cls-1" d="M61.88,114.1c-1.18,0-1.66-.5-1.66-1.36,0-.46.09-1.77.21-3.26H57.58l-.31,4.38c0,.17-.07.24-.26.24h-.88c-1.18,0-1.66-.5-1.66-1.36,0-1.29.67-8.65.67-9.74,0-.17.08-.24.26-.24h.88c1.3,0,1.64.56,1.64,1.65,0,.16-.08,1.32-.18,2.76H60.6c.15-1.88.29-3.67.29-4.17,0-.17.08-.24.25-.24H62c1.31,0,1.65.56,1.65,1.65,0,.45-.61,9-.66,9.45,0,.17-.06.24-.25.24Z"/><path class="cls-1" d="M75.24,107.46c0,2.55-.88,6.8-5.65,6.8-3.51,0-4.54-2.25-4.54-5.06,0-3.32,1.39-6.61,5.83-6.61C74,102.59,75.24,104.39,75.24,107.46ZM68,109c0,1.93.69,2.8,1.87,2.8,2,0,2.38-2.88,2.38-4.18,0-1.55-.5-2.53-1.73-2.53C68.31,105.06,68,107.71,68,109Z"/><path class="cls-1" d="M78.24,114.1c-1.2,0-1.66-.5-1.66-1.42,0-.55.14-2.56.32-4.6.32-3.78.32-4.12.33-5.08a.24.24,0,0,1,.24-.24c1.1,0,2.73-.15,3.67-.15,2.75,0,3.83,1.35,3.83,3.63,0,2.49-1.27,4.82-4.35,4.82a3.9,3.9,0,0,1-1.17-.14l-.22,2.94c0,.17-.06.24-.26.24Zm1.58-9c0,.89-.11,2.25-.21,3.64a3.8,3.8,0,0,0,.9.11c1.48,0,1.75-1.61,1.75-2.43s-.35-1.4-1.43-1.4A8.12,8.12,0,0,0,79.82,105.08Z"/></svg>