<svg id="Capa_1" data-name="Capa 1" xmlns="http://www.w3.org/2000/svg" viewBox="0 0 700 700"><defs><style>.cls-1{fill:#58382b;}</style></defs><title>Sin título-2</title><path class="cls-1" d="M201.23,420.7q-3.66,1.4-9.26-.86-5.44-2.31-6.47-5-3.92-10.72,1.07-38.91,1.94-11.69,5.21-24.43t7.69-27a5.45,5.45,0,0,0-.33-2.79c-1-2.55-2.52-3.43-4.64-2.62-3.09,1.18-6.39,3.59-9.93,7.25a105.16,105.16,0,0,0-11.35,14.53q-16.77,25-28.38,46.75a325.72,325.72,0,0,0-18.59,40.83,4.65,4.65,0,0,1-3.12,2.83c-2.55,1-4.1.72-4.67-.77l0-1.08q2.4-13.32,4.21-28.25t3.06-31.27q.84-8.36-.61-12.18-1.1-2.86-3.68-1.51-9.91,5.6-21.25,23.77A289.75,289.75,0,0,1,92.87,415a255.67,255.67,0,0,1-11,31.93q-4.12,9.78-9.7,11.91c-3,1.13-5,.36-6-2.29a7.15,7.15,0,0,1-.38-3.87c.68-4.28,1.68-8.91,3-13.92s3-10.34,5.14-16q5.37-14.64,10.78-23.45L92,386.73q.84-4.51,1.24-9c.27-3,.44-6,.49-9l.58-11.89q.3-8.34-1.46-12.95-2.49-6.54-10.77-3.38-7.19,2.73-18.74,14.06-4.35,4.4-8,8.81t-6.82,8.71a88.05,88.05,0,0,0-5,8.39q-2.77,5.16-5.94,12.2-7.72,16.62-6.21,20.61,1.77,4.63,11,.57l.79-.31c1-.36,1.56-.22,1.8.41q.67,1.76-3,3.15a20.79,20.79,0,0,1-11.22,1.44c-3.34-.61-5.49-2.2-6.46-4.75a6.82,6.82,0,0,1-.49-2.73q.06-5.13,6.85-19.39,3.35-6.57,6.36-11.82a99.42,99.42,0,0,1,5.78-9q19.25-26.13,36.47-32.68,6.86-2.59,12-1.09t7.93,8.84q3.51,9.25,2.49,23.33l-.27,2.65a105.07,105.07,0,0,1,10.79-13.59q5.06-5.2,9.67-7,7.17-2.73,10.15,5.08,1.81,4.78,1.86,13.53,0,5.29-.7,14.22t-2.22,21.74q10-19.85,19.77-37t20-32.15q11.2-17,22.21-21.22a9.3,9.3,0,0,1,8.11.93,12.41,12.41,0,0,1,5.86,6.53,9.27,9.27,0,0,1,.39,5.33L195.9,369.26a139.91,139.91,0,0,0-3.59,23.9,92,92,0,0,0,1,20.69,2.85,2.85,0,0,1,.16.67,2.89,2.89,0,0,0,.16.66q1,2.71,3.58,1.74,4-1.51,10.09-10.41a77.39,77.39,0,0,0,7.7-13.33,2.82,2.82,0,0,1,1.23-1.56c.54-.2.94.07,1.23.81a5.13,5.13,0,0,1-.32,4Q208.25,418,201.23,420.7Zm-128.34,30c1.06-.41,2.06-1.76,3-4.07a204.26,204.26,0,0,0,8.74-24,234.27,234.27,0,0,0,6-25.53q-2.22,3.76-5.51,10.21t-7.54,15.92q-2.27,6.52-4,12.63A96.4,96.4,0,0,0,71.09,448a4.38,4.38,0,0,0,.19,1.94C71.61,450.74,72.14,451,72.89,450.74Z"/><path class="cls-1" d="M224.59,397.21q-3.66,1.4-5.3-2.91-1.15-3-.74-8.66,1.68-12.86,10.6-29.22,11-19.51,21-23.33,6.21-2.37,9.51-.89a13.86,13.86,0,0,1,6.78-5.68c.53-.2.86-.14,1,.18a1,1,0,0,1-.07.76,64,64,0,0,0-2.42,8.76,120.38,120.38,0,0,0-1.91,12.95q-1.92,17.52.7,24.37a6.5,6.5,0,0,0,.88,1.86l.06.16a4.52,4.52,0,0,1-.07,2.67c-.3,1.15-.76,1.84-1.4,2.08-1.28.49-2.72-1.39-4.34-5.64A48.94,48.94,0,0,1,256,352.06l-9.25,16.48a170,170,0,0,1-9.81,15.68,89.11,89.11,0,0,1-8.27,10.17A10.5,10.5,0,0,1,224.59,397.21ZM229,387.15a4.55,4.55,0,0,0,1.83-1.43,49.87,49.87,0,0,0,5.59-6.87,127.66,127.66,0,0,0,7.85-12.48,160.54,160.54,0,0,0,8-15.72q2.94-6.87,4.21-10.27a4,4,0,0,0-4.86-1.25q-5.58,2.13-14.21,16.36-9.63,16.42-11.2,25.24a10.47,10.47,0,0,0,.39,5.33A1.66,1.66,0,0,0,229,387.15Z"/><path class="cls-1" d="M277,376.72c-.63.24-1.05.09-1.26-.44l-.1-1.23a12.14,12.14,0,0,1,.33-1.77c.17-.67.36-1.36.59-2l1.09-4.8c.16-.54.37-1.26.64-2.16a29,29,0,0,0,.75-3.29l1.91-9.85a60.59,60.59,0,0,0,1.74-12.71c-.14-.68-.33-1.49-.56-2.43s-.53-2-.87-3.23q0-.92,4.53-5.37c2.75-3,4.82-4.76,6.2-5.28.53-.2.86-.15,1,.17a3.09,3.09,0,0,1-.05,1.3q-1.32,4.69-2.54,10.36T288,346.08l7.19-12.77c.87-1.55,1.59-2.76,2.17-3.65s.92-1.48,1.06-1.77q8.7-12.61,17.63-16c.74-.28,1.4.32,2,1.81a14.09,14.09,0,0,1,.81,5.26c0,2-.46,3.18-1.31,3.5a.93.93,0,0,1-.75-.07l-.13-.32a2.85,2.85,0,0,1-.16-.67,4.87,4.87,0,0,0-.28-1l-.19-.47c-.28-.75-.63-1-1.06-.88Q301.38,324.2,289.08,349a50.9,50.9,0,0,0-2.27,6.52q-1.17,4.09-2.51,9.71L284,369.3l-3.39,4Q278.13,376.29,277,376.72Z"/><path class="cls-1" d="M338.58,411a19.38,19.38,0,0,1-16.45-1A24,24,0,0,1,309.55,384q8.1-8.93,21.46-22.49t32.51-31.8q-.27-2.64-.78-6.37c-.34-2.48-.77-5.39-1.31-8.71l-14.26,19.11a91.78,91.78,0,0,1-9,10.71c-2.61,2.58-4.77,4.19-6.46,4.83q-5.91,2.25-8.21-3.81a11.68,11.68,0,0,1-.76-5.36q.33-10.17,12.94-27.37,13.23-18,24.23-22.18,4.94-1.87,5.49-.44c.36.95-.78,2.91-3.43,5.86a11.3,11.3,0,0,0-4.39.94q-8.44,3.21-19.11,19.31-10.8,16.71-8,24a2.26,2.26,0,0,0,3.3,1.48,8.58,8.58,0,0,0,3.14-2.29q4.55-4.83,10.47-12.29t13.1-17.85a7.86,7.86,0,0,1,2-7.31,15,15,0,0,1,2.17-1.74q1.65-1.17,4.43-3l.7,11.42q.47,6,.9,13.89c.77-.54,1.55-1.14,2.33-1.8s1.64-1.36,2.58-2.08,1.73-1.38,2.67-2.11,1.9-1.39,2.88-2a.63.63,0,0,0,.29-.2.8.8,0,0,1,.29-.2,2.77,2.77,0,0,1,1.84,0c.69.23,1.08.44,1.16.65l-.3.66q-13.4,8.94-13,16.8a153.39,153.39,0,0,1-.11,24.4A102.14,102.14,0,0,1,367.27,378Q359.14,403.13,338.58,411Zm-2.91-2.36q18.33-7,25.32-32.26a105,105,0,0,0,3.42-20.28,125.16,125.16,0,0,0-.43-21.73q-6,5.91-11.66,11.55t-11.72,11.4q-12.84,13.28-19,26.92-3.94,8.79-1.34,15.65a14.39,14.39,0,0,0,6.64,7.61Q331.7,410.11,335.67,408.59Z"/><path class="cls-1" d="M385.39,336.39c-1.06.4-1.72.29-2-.35a2.17,2.17,0,0,1,.05-1.3q.5-2.55,1.26-5.58t1.54-6.25c.48-2.25,1.07-4.63,1.75-7.14s1.35-5.17,2-8a24.58,24.58,0,0,0,1.06-8.25,5.85,5.85,0,0,0-.36-1.41,5.78,5.78,0,0,1-.35-1.42l-.56-2.89c-.15-1,1.42-3.15,4.71-6.35q3.51-3.71,5.9-4.62c.85-.32,1.29-.13,1.32.59q.35,4.26-1.58,11.19l-3.75,13.65c-.43,1.75-1.06,3.84-1.89,6.29s-1.76,5.38-2.77,8.8c.18-.18.56-.54,1.15-1.07s1.38-1.23,2.39-2.1,2.25-1.92,3.73-3.15,3.24-2.66,5.3-4.3q1.92-1.63,4.88-3.95t7.15-5.19a.91.91,0,0,1,1.32.6l.12.32c.17.42,0,.86-.59,1.32q-19.92,14.33-28.47,27.8A6.78,6.78,0,0,1,385.39,336.39Zm9.88-74.74c-.53.2-1.24,0-2.11-.75a5.06,5.06,0,0,1-1.62-1.85,3.58,3.58,0,0,1,.5-3,14.14,14.14,0,0,1,2.51-3.23,8.34,8.34,0,0,1,2.48-1.86c.64-.24,1-.21,1.14.11a4.29,4.29,0,0,1,.24,1.83,19.6,19.6,0,0,1-.38,2.6,8.7,8.7,0,0,0-.32,3.23C397.78,260,397,261,395.27,261.65Z"/><path class="cls-1" d="M430.9,319.8a15.29,15.29,0,0,1-9.5.7q-4.56-1.19-5.89-4.7a17.24,17.24,0,0,1-.72-4.28q-.41-15,12.46-40.15l6.88-5.9c4.46-3.64,6.91-5.48,7.38-5.54q6.25-1.29,7.78,2.69,2.91,7.67-6.51,19.82-8.46,10.88-16.74,14c-.54.2-1.08.38-1.63.53s-1.11.27-1.68.37q-.75,2.83-1.29,5.23a26.91,26.91,0,0,0-.68,4.46,14.58,14.58,0,0,0,.66,5.58q2,5.26,6.31,3.63t12.41-9.11q7.91-7,10.23-11a4.69,4.69,0,0,1,1.93-1.64c.63-.24,1.05-.1,1.26.43a4.08,4.08,0,0,1-.81,2.68q-1.72,2.67-4.13,5.68t-5.45,6.54Q435.21,318.16,430.9,319.8Zm-1.26-28.72q5.75-2.18,9.75-10.82,3.75-8.36,2.24-12.35a2.22,2.22,0,0,0-3-1.6q-7.29,1.5-14.08,24.88A6.44,6.44,0,0,0,429.64,291.08Z"/><path class="cls-1" d="M473.08,241.71a.15.15,0,0,1-.22-.1q.24.64,1.65-9.57t-.65-15.63a8.45,8.45,0,0,0-1.39-2.2,8.65,8.65,0,0,1-1.33-2.05,6.44,6.44,0,0,1-.14-3.51,3,3,0,0,1,1.67-2.55c1.28-.49,2.91,0,4.92,1.41l-.06-.16a7.14,7.14,0,0,1,1.45,2.37q1.51,4-.8,17.09Q475.95,240.63,473.08,241.71Z"/><path class="cls-1" d="M506.92,316.24q-8.46,3.22-10.21-1.4a5.09,5.09,0,0,1-.45-1.66q-.37-3.87,10.44-16.2a121.66,121.66,0,0,1,22.17-19.93Q539.31,270,549,263.82t18.88-11.29q7.3-12.45,6.32-21.75a13,13,0,0,0-.73-3.37q-2.37-6.21-11.94-5.49-2.87.18-18.79,3.86-14.76,3.43-21.08,3.1-8.24-.51-10.47-6.42a17.35,17.35,0,0,1-1-5.46q-.65-12.72,15.37-32.49,17.61-21.84,38.33-29.73Q579,149,582.33,157.62q1.7,4.47-.06,12.8c-.48,2.25-1.1,3.52-1.84,3.8q-.48.18-.72-.45a5.78,5.78,0,0,1,0-2.76,14.24,14.24,0,0,0-.22-7.76q-2.91-7.65-16.78-2.38a77.47,77.47,0,0,0-16.22,8.45,95.55,95.55,0,0,0-14,11.82q-13.8,14.55-15.3,30.28a12.14,12.14,0,0,0,.45,5.48q2.85,7.5,24.94,2.74,18-4.11,24.59-4.43,12.49-.75,14.38,5.66,4.54,10.5-3.54,26.16l1.05-.58a7.47,7.47,0,0,1,1.53-.77l2.24-.85.79-.3c1-.36,1.56-.23,1.8.41q.62,1.59-2.36,2.91a9.16,9.16,0,0,1-1.69.82,12.59,12.59,0,0,0-1.85.89l-4,2.06A158,158,0,0,1,559,274.17a216.52,216.52,0,0,1-23,22.45Q517.28,312.29,506.92,316.24Zm-2.42-3.46q7.33-2.79,27.75-20.59,19.5-16.37,31.32-33.27-6,4.31-14.07,10t-18.59,13a94.82,94.82,0,0,0-10,7.74Q516,294,511,299q-10.09,10.41-8.94,13.44l.06.15C502.31,313.25,503.12,313.31,504.5,312.78Z"/><path class="cls-1" d="M633.63,242.11q-3.51,1.33-4.66-1.69l-.16-1.4q1.31-6.15,2.25-13.26t1.84-15.3l-2.52,3.69c-.9,1.32-1.83,2.77-2.81,4.36l-3.11,5c-1.1,1.75-2.33,3.56-3.69,5.41l-9.08,12.58a64.8,64.8,0,0,1-7.3,8.62,18.29,18.29,0,0,1-5.45,3.9q-2.88,1.1-4.69-3.69-1.51-4-.16-11.44c.29-1.81.63-3.61,1-5.41s.84-3.57,1.27-5.32.86-3.73,1.29-6,.87-4.65,1.34-7.27c-.06-.46-.11-.93-.17-1.39s-.13-1-.23-1.56a19.34,19.34,0,0,1-.37-3.87q0-.91,3.41-3.49,1.94-1.65,3.57-3.09a36,36,0,0,0,2.67-2.57,4.42,4.42,0,0,1,1.67-1.36c1.17-.45,2-.14,2.36.92a7,7,0,0,1,.11,1.24q-2.37,6.74-4.67,13.64t-4.48,14.11q-3.95,12.65-2.25,17.1a1.21,1.21,0,0,0,1.76.79q2.39-.91,8.42-9,2.49-3.51,5-7t4.83-7q5.72-8,10.23-15.56t7.89-14.5a6,6,0,0,1,2.71-2.49c1.48-.57,2.41-.37,2.77.58a2.11,2.11,0,0,1-.09,1.68q-2,5.87-3.23,10.45a55.79,55.79,0,0,0-1.71,8.22l-2,19.73q3.48-3.33,8.59-8.11T658,211.3c.28-.23.54-.42.78-.58a4,4,0,0,1,.53-.29c.85-.32,1.4-.17,1.64.47.32.85-.21,1.85-1.6,3a68,68,0,0,0-10.46,9.46c-1.44,1.64-2.83,3.27-4.17,4.87s-2.7,3.28-4.1,5a2.17,2.17,0,0,1-.36.5l-.77.84a7.09,7.09,0,0,0-1,1.47,23,23,0,0,1-1.28,2.14Q634.91,241.63,633.63,242.11Z"/><path class="cls-1" d="M179.28,559.16q-6.37,2.42-9.46-5.71-5-13.23,2.16-39.87c-2.6-.11-4.33-.57-5.19-1.4a7.76,7.76,0,0,1-1.9-2.84q-1.87-4.93.51-5.85t6.91,3.76l1.42.37q1.61-5.36,3.62-10.86t4.51-11.39l9.52-21.51a2.34,2.34,0,0,1-1.34-1.13q-.73-1.92,2.6-6.1a63.54,63.54,0,0,0,4.31-5.47q1-2.58,5.81-4.4,2.7-1,4-.06a.74.74,0,0,1,.34.42c.36.95-.07,2.52-1.31,4.69q-8.49,15.1-15,29a263.47,263.47,0,0,0-10.95,27.07,41.4,41.4,0,0,0,10.62-2.76,84.25,84.25,0,0,0,8.72-4q4.56-2.37,9.72-5.61a99.09,99.09,0,0,0,14.75-11.36,90.82,90.82,0,0,0,12.67-14.41A50.91,50.91,0,0,0,244,454.16a22.91,22.91,0,0,0-.4-14.72,18.72,18.72,0,0,0-7.89-10,25.09,25.09,0,0,0-12.28-3.26,57.39,57.39,0,0,0-15,1.79,133.78,133.78,0,0,0-16.15,5.05A87.49,87.49,0,0,0,179,439.55a114.51,114.51,0,0,0-13.51,9.33,80.17,80.17,0,0,0-11.34,11,38.36,38.36,0,0,0-6.91,11.57,15.32,15.32,0,0,0-.13,10.91,12.46,12.46,0,0,0,4.61,5.91,9.4,9.4,0,0,0,6.34,1.78q3.12-.45,3.72,1.14c.32.85-.32,1.4-1.93,1.65a16,16,0,0,1-7.23-.54,19.55,19.55,0,0,1-6.81-3.52,12.84,12.84,0,0,1-4.17-5.44,20.18,20.18,0,0,1,.18-15.12,44.44,44.44,0,0,1,9.86-14.61,100.2,100.2,0,0,1,32.87-22,153.66,153.66,0,0,1,20-6.81,79.6,79.6,0,0,1,19.1-2.79,34.61,34.61,0,0,1,15.56,3,18.59,18.59,0,0,1,9.44,10.65,26.73,26.73,0,0,1,.65,16.81A55.62,55.62,0,0,1,241,469.91a102.28,102.28,0,0,1-14,16,108.11,108.11,0,0,1-16.05,12.49q-6,3.77-11.78,6.67a115.54,115.54,0,0,1-11.16,5c-2,.77-3.84,1.4-5.48,1.9a39.39,39.39,0,0,1-4.33,1.1q-9.25,28.89-5.19,39.57,1.64,4.3,5.46,2.85a7,7,0,0,0,1.69-.83,10.83,10.83,0,0,1,3.92-3.13c1-.37,1.55-.23,1.8.41.36,1-.77,2.78-3.39,5.48A15,15,0,0,1,179.28,559.16Z"/><path class="cls-1" d="M252.55,514.31q-3.68,1.4-5.31-2.91c-.77-2-1-4.9-.74-8.66q1.68-12.86,10.6-29.21,11-19.51,21-23.34,6.21-2.37,9.51-.89a13.86,13.86,0,0,1,6.78-5.68c.53-.2.86-.14,1,.18a1,1,0,0,1-.07.76,64,64,0,0,0-2.42,8.76,120.22,120.22,0,0,0-1.91,13q-1.92,17.52.7,24.37a6.84,6.84,0,0,0,.88,1.85l.06.16a4.52,4.52,0,0,1-.07,2.67c-.3,1.15-.76,1.84-1.4,2.09-1.28.48-2.72-1.4-4.34-5.65a48.94,48.94,0,0,1-2.94-22.61l-9.25,16.48a171.63,171.63,0,0,1-9.81,15.69,90.93,90.93,0,0,1-8.27,10.17A10.62,10.62,0,0,1,252.55,514.31Zm4.38-10.06a4.55,4.55,0,0,0,1.83-1.43,49.87,49.87,0,0,0,5.59-6.87,127.66,127.66,0,0,0,7.85-12.48,161.62,161.62,0,0,0,8-15.71q2.94-6.87,4.21-10.28a4,4,0,0,0-4.86-1.25q-5.58,2.13-14.21,16.36-9.61,16.44-11.2,25.24a10.46,10.46,0,0,0,.39,5.33A1.66,1.66,0,0,0,256.93,504.25Z"/><path class="cls-1" d="M315.82,488.77q-6.69,2.55-10.24,3.54a26.91,26.91,0,0,1-3.93.94c-.84-.28-1.34-.64-1.5-1.07-.49-1.27,1-2.58,4.53-3.91A80.84,80.84,0,0,0,324.29,477a.92.92,0,0,0,.27-1.2q-.66-1.75-7.67-5.3c-4.67-2.35-7.33-4.39-8-6.09q-3.57-9.4,3.06-19.77a47.88,47.88,0,0,1,23.8-19.46q7.19-2.73,8.39.46,1.15,3-3.65,5.76a8.65,8.65,0,0,1-1.84.43l-2.76.42a19.83,19.83,0,0,0-4.71,1.06A29,29,0,0,0,318,443.07Q312,451,315.24,459.43q1,2.71,6.82,6.9c1.19.89,2.25,1.69,3.2,2.43s1.76,1.34,2.43,1.81c1.37,1.06,2.15,1.68,2.34,1.85a15.26,15.26,0,0,0,3-1.69,3.91,3.91,0,0,1,1.41-1.09c.74-.28,1.24-.11,1.48.53.36,1,0,1.95-1.06,3a4.11,4.11,0,0,0-1.36,3.16,3.77,3.77,0,0,1-.93,2.82Q329.21,483.69,315.82,488.77Z"/><path class="cls-1" d="M359.86,473.11a19.87,19.87,0,0,1-6.76.93q-6.6,0-8.17-4.19a14.08,14.08,0,0,1-.48-5.11q.24-3.19.84-7.62T347,447l2.43-12.78a4.22,4.22,0,0,0-.26-1.64l-.51-1.35c-.49-1.28-1.11-1.95-1.87-2q-4.11-.26-4.6-1.54c-.16-.42.28-1,1.33-1.78q1.89-1.26,4.4-2.59c1.67-.87,3.61-1.79,5.8-2.75q2.91-9.13,5.9-17.57c2-6,3.78-9.89,5.39-11.73a18.63,18.63,0,0,1,8.16-6.38c.85-.33,1.31-.38,1.39-.17a.8.8,0,0,1-.33,1,78.87,78.87,0,0,0-7.56,12.73L360.89,414a3.59,3.59,0,0,0-.17,2.44c.33.85,1.17,1.14,2.52.86.53-.2,1.05-.43,1.57-.68a16.68,16.68,0,0,1,1.72-.75c1.17-.45,2.51-.92,4-1.44s3.08-1,4.72-1.52c1-.25,1.57-.17,1.74.25q.54,1.44-4.6,3.76-3.51,1.33-11.59,5.5a14,14,0,0,0-4.09,4.12,108.31,108.31,0,0,0-3.85,17.7A111.87,111.87,0,0,0,352,461c.08,3.74.33,6.15.73,7.21a2.56,2.56,0,0,0,3.74,1.67,11.56,11.56,0,0,0,4.2-2.87,14.65,14.65,0,0,0,2.16-2.47c.48-.66,1-1.4,1.72-2.2s1.39-1.78,2.17-2.92c3.11-4,4.87-6.06,5.3-6.22,1.06-.4,1.75-.18,2.08.67a2.85,2.85,0,0,1-.49,2.56l-4.2,6.71a40.21,40.21,0,0,1-3.61,4.65q-2,2.22-4.11,4.31A6.48,6.48,0,0,1,359.86,473.11Z"/><path class="cls-1" d="M393.82,461.65a15.29,15.29,0,0,1-9.5.69c-3-.78-5-2.35-5.89-4.69a16.51,16.51,0,0,1-.72-4.29q-.42-15,12.46-40.14l6.88-5.9q6.68-5.46,7.38-5.55,6.26-1.27,7.78,2.7,2.91,7.65-6.52,19.81-8.44,10.89-16.74,14a15.27,15.27,0,0,1-1.62.52,13.74,13.74,0,0,1-1.69.37c-.49,1.9-.92,3.64-1.29,5.24a29.08,29.08,0,0,0-.68,4.45,14.78,14.78,0,0,0,.67,5.59q2,5.26,6.31,3.62t12.41-9.1q7.9-7,10.23-11a4.67,4.67,0,0,1,1.92-1.64c.64-.25,1.06-.1,1.26.43a4,4,0,0,1-.8,2.68,69.58,69.58,0,0,1-4.14,5.68q-2.4,3-5.45,6.54Q398.13,460,393.82,461.65Zm-1.26-28.72q5.74-2.18,9.75-10.82,3.75-8.37,2.23-12.35a2.22,2.22,0,0,0-3-1.6q-7.28,1.48-14.07,24.88A6.44,6.44,0,0,0,392.56,432.93Z"/><path class="cls-1" d="M434.92,445.46q-1.89,1.28-5.93.25a10.44,10.44,0,0,1-6.81-5.44q-.39-10.61,5.74-34.3t18.57-60.53q.22-1.35,5.84-6.24c3.39-3.23,5.83-5.14,7.32-5.7s2.44-.32,2.84.74-.31,1.76-2,2.41-4.23,4.41-7.26,11.15q-5.66,12-15.19,44.47-11,37.22-8.29,44.4a8.58,8.58,0,0,0,2.07,3,2.83,2.83,0,0,0,3.22.78,14.18,14.18,0,0,0,3.32-2.54c1.57-1.45,3.28-3.13,5.1-5.05s3.54-3.8,5.13-5.69,2.75-3.33,3.47-4.33c.81,2.13,1,3.45.6,4-.69.75-1.35,1.49-2,2.22s-1.28,1.52-1.92,2.37l-1.88,2.27c-.67.8-1.33,1.63-2,2.48A45.68,45.68,0,0,1,434.92,445.46Z"/><path class="cls-1" d="M466.82,433.87a15.29,15.29,0,0,1-9.5.7c-3-.79-5-2.36-5.89-4.7a17.34,17.34,0,0,1-.72-4.29q-.4-15,12.46-40.14l6.88-5.9q6.69-5.46,7.38-5.55,6.27-1.28,7.78,2.7,2.91,7.65-6.51,19.82-8.46,10.88-16.74,14c-.53.2-1.07.38-1.63.53a15.67,15.67,0,0,1-1.68.36c-.5,1.9-.93,3.64-1.29,5.24a27.84,27.84,0,0,0-.68,4.46,14.56,14.56,0,0,0,.67,5.58q2,5.27,6.3,3.62t12.41-9.1q7.92-7,10.23-11a4.69,4.69,0,0,1,1.93-1.64c.64-.25,1.06-.1,1.26.43a4,4,0,0,1-.81,2.68,69.31,69.31,0,0,1-4.13,5.68q-2.42,3-5.45,6.54Q471.13,432.23,466.82,433.87Zm-1.25-28.72q5.73-2.17,9.74-10.82,3.76-8.37,2.24-12.35a2.22,2.22,0,0,0-3-1.6q-7.27,1.49-14.07,24.88A6.44,6.44,0,0,0,465.57,405.15Z"/><path class="cls-1" d="M494.81,421.58c-.64.24-1.06.1-1.26-.43l-.11-1.24a12.65,12.65,0,0,1,.33-1.77c.17-.67.37-1.35.59-2.05l1.1-4.79c.15-.55.37-1.27.64-2.16a31,31,0,0,0,.75-3.3l1.91-9.85a61.25,61.25,0,0,0,1.73-12.7c-.14-.68-.32-1.49-.56-2.44s-.52-2-.86-3.23q0-.92,4.52-5.37c2.76-3,4.82-4.75,6.21-5.28.53-.2.85-.14,1,.18a2.73,2.73,0,0,1,0,1.29q-1.32,4.71-2.53,10.37T505.78,391L513,378.18c.87-1.55,1.6-2.77,2.17-3.66a15,15,0,0,0,1.06-1.77q8.7-12.62,17.63-16c.74-.29,1.4.32,2,1.8a14.51,14.51,0,0,1,.81,5.26c0,2-.46,3.19-1.31,3.51a1,1,0,0,1-.76-.08l-.12-.32a2.45,2.45,0,0,1-.16-.66,4.86,4.86,0,0,0-.29-1l-.18-.48c-.28-.74-.64-1-1.06-.87q-13.56,5.14-25.85,29.9a51.09,51.09,0,0,0-2.26,6.52q-1.19,4.11-2.51,9.72l-.26,4.11-3.4,4Q495.92,421.16,494.81,421.58Z"/><path class="cls-1" d="M538.79,405.76c-1.06.4-1.72.28-2-.35a2.17,2.17,0,0,1,0-1.3c.33-1.7.75-3.57,1.25-5.58s1-4.1,1.55-6.25,1.07-4.63,1.75-7.15,1.35-5.16,2-8a24.84,24.84,0,0,0,1.06-8.25,6.22,6.22,0,0,0-.36-1.41,5.78,5.78,0,0,1-.35-1.42l-.56-2.89q-.23-1.56,4.7-6.35c2.35-2.47,4.32-4,5.91-4.62.85-.32,1.29-.13,1.32.59q.35,4.24-1.58,11.19l-3.75,13.65c-.43,1.75-1.06,3.84-1.9,6.29s-1.75,5.38-2.76,8.8c.17-.18.55-.54,1.14-1.07s1.39-1.23,2.4-2.1,2.25-1.92,3.73-3.15,3.24-2.66,5.3-4.3q1.92-1.63,4.88-3.95t7.15-5.19a.91.91,0,0,1,1.32.59l.12.32c.16.43,0,.87-.59,1.32Q550.68,389.56,542.13,403A6.89,6.89,0,0,1,538.79,405.76Zm11.27-71.08c-.32.12-.52.08-.6-.14a2.14,2.14,0,0,1,.21-1.62,5,5,0,0,1,.7-1.28q.78-1.75,1.85-4.72c.71-2,1.43-4,2.18-6s1.32-3.64,1.74-4.77a12.3,12.3,0,0,1,1-2.21,3.16,3.16,0,0,1,1.67-1.36,5.34,5.34,0,0,1,2.83,0,2.89,2.89,0,0,1,2.37,1.65c.24.64-.15,1.76-1.18,3.37s-1.85,2.89-2.46,3.86l-3.57,5q-2.14,3-4,5.43A8.47,8.47,0,0,1,550.06,334.68Z"/><path class="cls-1" d="M577.56,390.64c-2.45.93-4.21,0-5.31-2.91-.76-2-1-4.9-.74-8.66q1.68-12.85,10.6-29.21,11-19.51,21-23.34,6.21-2.37,9.52-.88a13.8,13.8,0,0,1,6.78-5.69c.53-.2.85-.14,1,.18a1,1,0,0,1-.08.76,64.61,64.61,0,0,0-2.41,8.76,120,120,0,0,0-1.92,13q-1.9,17.52.7,24.37a6.43,6.43,0,0,0,.89,1.85l.06.16a4.62,4.62,0,0,1-.08,2.67,2.75,2.75,0,0,1-1.4,2.09q-1.91.72-4.34-5.65a48.91,48.91,0,0,1-2.94-22.6L599.68,362a173.72,173.72,0,0,1-9.82,15.69,91,91,0,0,1-8.26,10.17A10.73,10.73,0,0,1,577.56,390.64Zm4.38-10.06a4.46,4.46,0,0,0,1.83-1.43,50.47,50.47,0,0,0,5.6-6.87,127.71,127.71,0,0,0,7.84-12.48,161.62,161.62,0,0,0,8-15.71q3-6.87,4.21-10.27a4,4,0,0,0-4.85-1.26q-5.58,2.13-14.22,16.36-9.62,16.44-11.19,25.24a10.58,10.58,0,0,0,.38,5.33A1.66,1.66,0,0,0,581.94,380.58Z"/></svg>